<?xml version="1.0" encoding="UTF-8" standalone="no"?>
<!DOCTYPE svg PUBLIC "-//W3C//DTD SVG 1.1//EN"
 "http://www.w3.org/Graphics/SVG/1.1/DTD/svg11.dtd">
<!-- Generated by graphviz version 14.1.2 (0)
 -->
<!-- Title: structs Pages: 1 -->
<svg width="256pt" height="228pt"
 viewBox="0.00 0.00 256.00 228.00" xmlns="http://www.w3.org/2000/svg" xmlns:xlink="http://www.w3.org/1999/xlink">
<g id="graph0" class="graph" transform="scale(1 1) rotate(0) translate(4 223.75)">
<title>structs</title>
<polygon fill="white" stroke="none" points="-4,4 -4,-223.75 252,-223.75 252,4 -4,4"/>
<!-- mysum -->
<g id="node1" class="node">
<title>mysum</title>
<polygon fill="Gray" stroke="Black" points="66,-97.25 66,-139.75 181,-139.75 181,-97.25 66,-97.25"/>
<text xml:space="preserve" text-anchor="middle" x="123.5" y="-122.45" font-family="Times,serif" font-size="14.00">mysum</text>
<text xml:space="preserve" text-anchor="middle" x="123.5" y="-105.2" font-family="Times,serif" font-size="14.00">interval=1/10</text>
</g>
<!-- core0 -->
<g id="node3" class="node">
<title>core0</title>
<polygon fill="#fff2cc" stroke="Black" points="0,-0.5 0,-60.25 115,-60.25 115,-0.5 0,-0.5"/>
<text xml:space="preserve" text-anchor="middle" x="57.5" y="-42.95" font-family="Times,serif" font-size="14.00">core0</text>
<text xml:space="preserve" text-anchor="middle" x="57.5" y="-25.7" font-family="Times,serif" font-size="14.00">interval=1/10</text>
<text xml:space="preserve" text-anchor="middle" x="57.5" y="-8.45" font-family="Times,serif" font-size="14.00">Declaration</text>
</g>
<!-- mysum&#45;&gt;core0 -->
<g id="edge1" class="edge">
<title>mysum&#45;&gt;core0</title>
<path fill="none" stroke="black" d="M107.86,-97.09C101.5,-88.8 93.95,-78.94 86.65,-69.41"/>
<polygon fill="black" stroke="black" points="89.55,-67.45 80.69,-61.64 84,-71.71 89.55,-67.45"/>
</g>
<!-- core1 -->
<g id="node4" class="node">
<title>core1</title>
<polygon fill="#fff2cc" stroke="Black" points="133,-0.5 133,-60.25 248,-60.25 248,-0.5 133,-0.5"/>
<text xml:space="preserve" text-anchor="middle" x="190.5" y="-42.95" font-family="Times,serif" font-size="14.00">core1</text>
<text xml:space="preserve" text-anchor="middle" x="190.5" y="-25.7" font-family="Times,serif" font-size="14.00">interval=1/10</text>
<text xml:space="preserve" text-anchor="middle" x="190.5" y="-8.45" font-family="Times,serif" font-size="14.00">Declaration</text>
</g>
<!-- mysum&#45;&gt;core1 -->
<g id="edge2" class="edge">
<title>mysum&#45;&gt;core1</title>
<path fill="none" stroke="black" d="M139.38,-97.09C145.83,-88.8 153.5,-78.94 160.91,-69.41"/>
<polygon fill="black" stroke="black" points="163.58,-71.68 166.96,-61.63 158.06,-67.38 163.58,-71.68"/>
</g>
<!-- str4 -->
<g id="node2" class="node">
<title>str4</title>
<polygon fill="Gray" stroke="Black" points="66,-176.75 66,-219.25 181,-219.25 181,-176.75 66,-176.75"/>
<text xml:space="preserve" text-anchor="middle" x="123.5" y="-201.95" font-family="Times,serif" font-size="14.00">str4</text>
<text xml:space="preserve" text-anchor="middle" x="123.5" y="-184.7" font-family="Times,serif" font-size="14.00">interval=1/10</text>
</g>
<!-- str4&#45;&gt;mysum -->
<g id="edge3" class="edge">
<title>str4&#45;&gt;mysum</title>
<path fill="none" stroke="black" d="M123.5,-176.64C123.5,-168.87 123.5,-159.81 123.5,-151.23"/>
<polygon fill="black" stroke="black" points="127,-151.51 123.5,-141.51 120,-151.51 127,-151.51"/>
</g>
</g>
</svg>
