<?xml version="1.0" encoding="UTF-8" standalone="no"?>
<!DOCTYPE svg PUBLIC "-//W3C//DTD SVG 1.1//EN"
 "http://www.w3.org/Graphics/SVG/1.1/DTD/svg11.dtd">
<!-- Generated by graphviz version 14.1.2 (0)
 -->
<!-- Title: structs Pages: 1 -->
<svg width="450pt" height="228pt"
 viewBox="0.00 0.00 450.00 228.00" xmlns="http://www.w3.org/2000/svg" xmlns:xlink="http://www.w3.org/1999/xlink">
<g id="graph0" class="graph" transform="scale(1 1) rotate(0) translate(4 223.75)">
<title>structs</title>
<polygon fill="white" stroke="none" points="-4,4 -4,-223.75 445.75,-223.75 445.75,4 -4,4"/>
<!-- STREAM_ADD_core0_core1_1 -->
<g id="node1" class="node">
<title>STREAM_ADD_core0_core1_1</title>
<polygon fill="Sienna" stroke="Black" points="0,-97.25 0,-139.75 211.75,-139.75 211.75,-97.25 0,-97.25"/>
<text xml:space="preserve" text-anchor="middle" x="105.88" y="-122.45" font-family="Times,serif" font-size="14.00">STREAM_ADD_core0_core1</text>
<text xml:space="preserve" text-anchor="middle" x="105.88" y="-105.2" font-family="Times,serif" font-size="14.00">interval=1/10, Auto</text>
</g>
<!-- core0 -->
<g id="node5" class="node">
<title>core0</title>
<polygon fill="#fff2cc" stroke="Black" points="96.38,-0.5 96.38,-60.25 211.38,-60.25 211.38,-0.5 96.38,-0.5"/>
<text xml:space="preserve" text-anchor="middle" x="153.88" y="-42.95" font-family="Times,serif" font-size="14.00">core0</text>
<text xml:space="preserve" text-anchor="middle" x="153.88" y="-25.7" font-family="Times,serif" font-size="14.00">interval=1/10</text>
<text xml:space="preserve" text-anchor="middle" x="153.88" y="-8.45" font-family="Times,serif" font-size="14.00">Declaration</text>
</g>
<!-- STREAM_ADD_core0_core1_1&#45;&gt;core0 -->
<g id="edge1" class="edge">
<title>STREAM_ADD_core0_core1_1&#45;&gt;core0</title>
<path fill="none" stroke="black" d="M117.25,-97.09C121.73,-89.05 127.03,-79.54 132.18,-70.29"/>
<polygon fill="black" stroke="black" points="135.13,-72.2 136.94,-61.76 129.01,-68.79 135.13,-72.2"/>
</g>
<!-- core1 -->
<g id="node6" class="node">
<title>core1</title>
<polygon fill="#fff2cc" stroke="Black" points="253.38,-0.5 253.38,-60.25 368.38,-60.25 368.38,-0.5 253.38,-0.5"/>
<text xml:space="preserve" text-anchor="middle" x="310.88" y="-42.95" font-family="Times,serif" font-size="14.00">core1</text>
<text xml:space="preserve" text-anchor="middle" x="310.88" y="-25.7" font-family="Times,serif" font-size="14.00">interval=1/10</text>
<text xml:space="preserve" text-anchor="middle" x="310.88" y="-8.45" font-family="Times,serif" font-size="14.00">Declaration</text>
</g>
<!-- STREAM_ADD_core0_core1_1&#45;&gt;core1 -->
<g id="edge2" class="edge">
<title>STREAM_ADD_core0_core1_1&#45;&gt;core1</title>
<path fill="none" stroke="black" d="M155.24,-96.76C181.51,-85.72 214.22,-71.98 242.87,-59.95"/>
<polygon fill="black" stroke="black" points="243.96,-63.28 251.82,-56.18 241.25,-56.83 243.96,-63.28"/>
</g>
<!-- STREAM_ADD_core0_core1_2 -->
<g id="node2" class="node">
<title>STREAM_ADD_core0_core1_2</title>
<polygon fill="Sienna" stroke="Black" points="230,-97.25 230,-139.75 441.75,-139.75 441.75,-97.25 230,-97.25"/>
<text xml:space="preserve" text-anchor="middle" x="335.88" y="-122.45" font-family="Times,serif" font-size="14.00">STREAM_ADD_core0_core1</text>
<text xml:space="preserve" text-anchor="middle" x="335.88" y="-105.2" font-family="Times,serif" font-size="14.00">interval=1/10, Auto</text>
</g>
<!-- STREAM_ADD_core0_core1_2&#45;&gt;core0 -->
<g id="edge3" class="edge">
<title>STREAM_ADD_core0_core1_2&#45;&gt;core0</title>
<path fill="none" stroke="black" d="M292.28,-96.87C271.21,-86.9 245.44,-74.7 221.87,-63.55"/>
<polygon fill="black" stroke="black" points="223.48,-60.44 212.94,-59.33 220.48,-66.77 223.48,-60.44"/>
</g>
<!-- STREAM_ADD_core0_core1_2&#45;&gt;core1 -->
<g id="edge4" class="edge">
<title>STREAM_ADD_core0_core1_2&#45;&gt;core1</title>
<path fill="none" stroke="black" d="M329.95,-97.09C327.72,-89.39 325.09,-80.35 322.52,-71.48"/>
<polygon fill="black" stroke="black" points="325.88,-70.52 319.73,-61.89 319.16,-72.47 325.88,-70.52"/>
</g>
<!-- str4 -->
<g id="node3" class="node">
<title>str4</title>
<polygon fill="Gray" stroke="Black" points="48.38,-176.75 48.38,-219.25 163.38,-219.25 163.38,-176.75 48.38,-176.75"/>
<text xml:space="preserve" text-anchor="middle" x="105.88" y="-201.95" font-family="Times,serif" font-size="14.00">str4</text>
<text xml:space="preserve" text-anchor="middle" x="105.88" y="-184.7" font-family="Times,serif" font-size="14.00">interval=1/10</text>
</g>
<!-- str4&#45;&gt;STREAM_ADD_core0_core1_1 -->
<g id="edge5" class="edge">
<title>str4&#45;&gt;STREAM_ADD_core0_core1_1</title>
<path fill="none" stroke="black" d="M105.88,-176.64C105.88,-168.87 105.88,-159.81 105.88,-151.23"/>
<polygon fill="black" stroke="black" points="109.38,-151.51 105.88,-141.51 102.38,-151.51 109.38,-151.51"/>
</g>
<!-- str5 -->
<g id="node4" class="node">
<title>str5</title>
<polygon fill="Gray" stroke="Black" points="278.38,-176.75 278.38,-219.25 393.38,-219.25 393.38,-176.75 278.38,-176.75"/>
<text xml:space="preserve" text-anchor="middle" x="335.88" y="-201.95" font-family="Times,serif" font-size="14.00">str5</text>
<text xml:space="preserve" text-anchor="middle" x="335.88" y="-184.7" font-family="Times,serif" font-size="14.00">interval=1/10</text>
</g>
<!-- str5&#45;&gt;STREAM_ADD_core0_core1_2 -->
<g id="edge6" class="edge">
<title>str5&#45;&gt;STREAM_ADD_core0_core1_2</title>
<path fill="none" stroke="black" d="M335.88,-176.64C335.88,-168.87 335.88,-159.81 335.88,-151.23"/>
<polygon fill="black" stroke="black" points="339.38,-151.51 335.88,-141.51 332.38,-151.51 339.38,-151.51"/>
</g>
</g>
</svg>
