<svg xmlns="http://www.w3.org/2000/svg" class="railroad-diagram" height="192" viewBox="0 0 1022.0 192" width="1022.0">
<g transform="translate(.5 .5)">
<g>
<path d="M20 21v20m0 -10h20" fill="none" stroke="#000000" stroke-width="2.2" /></g><path d="M40 31h10" fill="none" stroke="#000000" stroke-width="2.2" /><g>
<path d="M50 31h0.0" fill="none" stroke="#000000" stroke-width="2.2" /><path d="M50.0 31h10" fill="none" stroke="#000000" stroke-width="2.2" /><g>
<path d="M60.0 31h270.5" fill="none" stroke="#000000" stroke-width="2.2" /><path d="M691.5 31h270.5" fill="none" stroke="#000000" stroke-width="2.2" /><g class="terminal ">
<path d="M330.5 31h0.0" fill="none" stroke="#000000" stroke-width="2.2" /><path d="M384.5 31h0.0" fill="none" stroke="#000000" stroke-width="2.2" /><rect height="22" rx="10" ry="10" width="54" x="330.5" y="20" stroke="#000000" stroke-width="2.2" fill="#d7f4d7" /><text x="357.5" y="35" font-family="DejaVu Sans Mono, monospace" font-size="14" font-weight="bold" text-anchor="middle" fill="#000000">RULE</text></g><path d="M384.5 31h10" fill="none" stroke="#000000" stroke-width="2.2" /><path d="M394.5 31h10" fill="none" stroke="#000000" stroke-width="2.2" /><g class="non-terminal ">
<path d="M404.5 31h0.0" fill="none" stroke="#000000" stroke-width="2.2" /><path d="M526.5 31h0.0" fill="none" stroke="#000000" stroke-width="2.2" /><rect height="22" width="122" x="404.5" y="20" stroke="#000000" stroke-width="2.2" fill="#ffffff" /><text x="465.5" y="35" font-family="DejaVu Sans Mono, monospace" font-size="14" font-weight="normal" font-style="italic" text-anchor="middle" fill="#000000">nazwa_regu&#322;y</text></g><path d="M526.5 31h10" fill="none" stroke="#000000" stroke-width="2.2" /><path d="M536.5 31h10" fill="none" stroke="#000000" stroke-width="2.2" /><g class="terminal ">
<path d="M546.5 31h0.0" fill="none" stroke="#000000" stroke-width="2.2" /><path d="M583.5 31h0.0" fill="none" stroke="#000000" stroke-width="2.2" /><rect height="22" rx="10" ry="10" width="37" x="546.5" y="20" stroke="#000000" stroke-width="2.2" fill="#d7f4d7" /><text x="565" y="35" font-family="DejaVu Sans Mono, monospace" font-size="14" font-weight="bold" text-anchor="middle" fill="#000000">ON</text></g><path d="M583.5 31h10" fill="none" stroke="#000000" stroke-width="2.2" /><path d="M593.5 31h10" fill="none" stroke="#000000" stroke-width="2.2" /><g class="non-terminal ">
<path d="M603.5 31h0.0" fill="none" stroke="#000000" stroke-width="2.2" /><path d="M691.5 31h0.0" fill="none" stroke="#000000" stroke-width="2.2" /><rect height="22" width="88" x="603.5" y="20" stroke="#000000" stroke-width="2.2" fill="#ffffff" /><text x="647.5" y="35" font-family="DejaVu Sans Mono, monospace" font-size="14" font-weight="normal" font-style="italic" text-anchor="middle" fill="#000000">strumie&#324;</text></g></g><path d="M962.0 31a10 10 0 0 1 10 10v0a10 10 0 0 1 -10 10h-902.0a10 10 0 0 0 -10 10v0a10 10 0 0 0 10 10" fill="none" stroke="#000000" stroke-width="2.2" /><g>
<path d="M60.0 71h336.0" fill="none" stroke="#000000" stroke-width="2.2" /><path d="M626.0 71h336.0" fill="none" stroke="#000000" stroke-width="2.2" /><g class="terminal ">
<path d="M396.0 71h0.0" fill="none" stroke="#000000" stroke-width="2.2" /><path d="M450.0 71h0.0" fill="none" stroke="#000000" stroke-width="2.2" /><rect height="22" rx="10" ry="10" width="54" x="396" y="60" stroke="#000000" stroke-width="2.2" fill="#d7f4d7" /><text x="423" y="75" font-family="DejaVu Sans Mono, monospace" font-size="14" font-weight="bold" text-anchor="middle" fill="#000000">WHEN</text></g><path d="M450.0 71h10" fill="none" stroke="#000000" stroke-width="2.2" /><path d="M460.0 71h10" fill="none" stroke="#000000" stroke-width="2.2" /><g class="non-terminal ">
<path d="M470.0 71h0.0" fill="none" stroke="#000000" stroke-width="2.2" /><path d="M626.0 71h0.0" fill="none" stroke="#000000" stroke-width="2.2" /><rect height="22" width="156" x="470" y="60" stroke="#000000" stroke-width="2.2" fill="#ffffff" /><text x="548" y="75" font-family="DejaVu Sans Mono, monospace" font-size="14" font-weight="normal" font-style="italic" text-anchor="middle" fill="#000000">warunek_logiczny</text></g></g><path d="M962.0 71a10 10 0 0 1 10 10v0a10 10 0 0 1 -10 10h-902.0a10 10 0 0 0 -10 10v0a10 10 0 0 0 10 10" fill="none" stroke="#000000" stroke-width="2.2" /><g>
<path d="M60.0 111h10.0" fill="none" stroke="#000000" stroke-width="2.2" /><path d="M952.0 111h10.0" fill="none" stroke="#000000" stroke-width="2.2" /><g class="terminal ">
<path d="M70.0 111h0.0" fill="none" stroke="#000000" stroke-width="2.2" /><path d="M107.0 111h0.0" fill="none" stroke="#000000" stroke-width="2.2" /><rect height="22" rx="10" ry="10" width="37" x="70" y="100" stroke="#000000" stroke-width="2.2" fill="#d7f4d7" /><text x="88.5" y="115" font-family="DejaVu Sans Mono, monospace" font-size="14" font-weight="bold" text-anchor="middle" fill="#000000">DO</text></g><path d="M107.0 111h10" fill="none" stroke="#000000" stroke-width="2.2" /><g>
<path d="M117.0 111h0.0" fill="none" stroke="#000000" stroke-width="2.2" /><path d="M952.0 111h0.0" fill="none" stroke="#000000" stroke-width="2.2" /><path d="M117.0 111h20" fill="none" stroke="#000000" stroke-width="2.2" /><g>
<path d="M137.0 111h0.0" fill="none" stroke="#000000" stroke-width="2.2" /><path d="M932.0 111h0.0" fill="none" stroke="#000000" stroke-width="2.2" /><g class="terminal ">
<path d="M137.0 111h0.0" fill="none" stroke="#000000" stroke-width="2.2" /><path d="M191.0 111h0.0" fill="none" stroke="#000000" stroke-width="2.2" /><rect height="22" rx="10" ry="10" width="54" x="137" y="100" stroke="#000000" stroke-width="2.2" fill="#d7f4d7" /><text x="164" y="115" font-family="DejaVu Sans Mono, monospace" font-size="14" font-weight="bold" text-anchor="middle" fill="#000000">DUMP</text></g><path d="M191.0 111h10" fill="none" stroke="#000000" stroke-width="2.2" /><g>
<path d="M201.0 111h0.0" fill="none" stroke="#000000" stroke-width="2.2" /><path d="M269.5 111h0.0" fill="none" stroke="#000000" stroke-width="2.2" /><path d="M201.0 111h20" fill="none" stroke="#000000" stroke-width="2.2" /><g>
<path d="M221.0 111h28.5" fill="none" stroke="#000000" stroke-width="2.2" /></g><path d="M249.5 111h20" fill="none" stroke="#000000" stroke-width="2.2" /><path d="M201.0 111a10 10 0 0 1 10 10v0a10 10 0 0 0 10 10" fill="none" stroke="#000000" stroke-width="2.2" /><g class="terminal ">
<path d="M221.0 131h0.0" fill="none" stroke="#000000" stroke-width="2.2" /><path d="M249.5 131h0.0" fill="none" stroke="#000000" stroke-width="2.2" /><rect height="22" rx="10" ry="10" width="28.5" x="221" y="120" stroke="#000000" stroke-width="2.2" fill="#d7f4d7" /><text x="235.25" y="135" font-family="DejaVu Sans Mono, monospace" font-size="14" font-weight="bold" text-anchor="middle" fill="#000000">-</text></g><path d="M249.5 131a10 10 0 0 0 10 -10v0a10 10 0 0 1 10 -10" fill="none" stroke="#000000" stroke-width="2.2" /></g><path d="M269.5 111h10" fill="none" stroke="#000000" stroke-width="2.2" /><g class="non-terminal ">
<path d="M279.5 111h0.0" fill="none" stroke="#000000" stroke-width="2.2" /><path d="M401.5 111h0.0" fill="none" stroke="#000000" stroke-width="2.2" /><rect height="22" width="122" x="279.5" y="100" stroke="#000000" stroke-width="2.2" fill="#ffffff" /><text x="340.5" y="115" font-family="DejaVu Sans Mono, monospace" font-size="14" font-weight="normal" font-style="italic" text-anchor="middle" fill="#000000">kroki_wstecz</text></g><path d="M401.5 111h10" fill="none" stroke="#000000" stroke-width="2.2" /><path d="M411.5 111h10" fill="none" stroke="#000000" stroke-width="2.2" /><g class="terminal ">
<path d="M421.5 111h0.0" fill="none" stroke="#000000" stroke-width="2.2" /><path d="M458.5 111h0.0" fill="none" stroke="#000000" stroke-width="2.2" /><rect height="22" rx="10" ry="10" width="37" x="421.5" y="100" stroke="#000000" stroke-width="2.2" fill="#d7f4d7" /><text x="440" y="115" font-family="DejaVu Sans Mono, monospace" font-size="14" font-weight="bold" text-anchor="middle" fill="#000000">TO</text></g><path d="M458.5 111h10" fill="none" stroke="#000000" stroke-width="2.2" /><g>
<path d="M468.5 111h0.0" fill="none" stroke="#000000" stroke-width="2.2" /><path d="M537.0 111h0.0" fill="none" stroke="#000000" stroke-width="2.2" /><path d="M468.5 111h20" fill="none" stroke="#000000" stroke-width="2.2" /><g>
<path d="M488.5 111h28.5" fill="none" stroke="#000000" stroke-width="2.2" /></g><path d="M517.0 111h20" fill="none" stroke="#000000" stroke-width="2.2" /><path d="M468.5 111a10 10 0 0 1 10 10v0a10 10 0 0 0 10 10" fill="none" stroke="#000000" stroke-width="2.2" /><g class="terminal ">
<path d="M488.5 131h0.0" fill="none" stroke="#000000" stroke-width="2.2" /><path d="M517.0 131h0.0" fill="none" stroke="#000000" stroke-width="2.2" /><rect height="22" rx="10" ry="10" width="28.5" x="488.5" y="120" stroke="#000000" stroke-width="2.2" fill="#d7f4d7" /><text x="502.75" y="135" font-family="DejaVu Sans Mono, monospace" font-size="14" font-weight="bold" text-anchor="middle" fill="#000000">-</text></g><path d="M517.0 131a10 10 0 0 0 10 -10v0a10 10 0 0 1 10 -10" fill="none" stroke="#000000" stroke-width="2.2" /></g><path d="M537.0 111h10" fill="none" stroke="#000000" stroke-width="2.2" /><g class="non-terminal ">
<path d="M547.0 111h0.0" fill="none" stroke="#000000" stroke-width="2.2" /><path d="M677.5 111h0.0" fill="none" stroke="#000000" stroke-width="2.2" /><rect height="22" width="130.5" x="547" y="100" stroke="#000000" stroke-width="2.2" fill="#ffffff" /><text x="612.25" y="115" font-family="DejaVu Sans Mono, monospace" font-size="14" font-weight="normal" font-style="italic" text-anchor="middle" fill="#000000">kroki_w_prz&#243;d</text></g><path d="M677.5 111h10" fill="none" stroke="#000000" stroke-width="2.2" /><g>
<path d="M687.5 111h0.0" fill="none" stroke="#000000" stroke-width="2.2" /><path d="M932.0 111h0.0" fill="none" stroke="#000000" stroke-width="2.2" /><path d="M687.5 111h20" fill="none" stroke="#000000" stroke-width="2.2" /><g>
<path d="M707.5 111h204.5" fill="none" stroke="#000000" stroke-width="2.2" /></g><path d="M912.0 111h20" fill="none" stroke="#000000" stroke-width="2.2" /><path d="M687.5 111a10 10 0 0 1 10 10v0a10 10 0 0 0 10 10" fill="none" stroke="#000000" stroke-width="2.2" /><g>
<path d="M707.5 131h0.0" fill="none" stroke="#000000" stroke-width="2.2" /><path d="M912.0 131h0.0" fill="none" stroke="#000000" stroke-width="2.2" /><g class="terminal ">
<path d="M707.5 131h0.0" fill="none" stroke="#000000" stroke-width="2.2" /><path d="M804.0 131h0.0" fill="none" stroke="#000000" stroke-width="2.2" /><rect height="22" rx="10" ry="10" width="96.5" x="707.5" y="120" stroke="#000000" stroke-width="2.2" fill="#d7f4d7" /><text x="755.75" y="135" font-family="DejaVu Sans Mono, monospace" font-size="14" font-weight="bold" text-anchor="middle" fill="#000000">RETENTION</text></g><path d="M804.0 131h10" fill="none" stroke="#000000" stroke-width="2.2" /><path d="M814.0 131h10" fill="none" stroke="#000000" stroke-width="2.2" /><g class="non-terminal ">
<path d="M824.0 131h0.0" fill="none" stroke="#000000" stroke-width="2.2" /><path d="M912.0 131h0.0" fill="none" stroke="#000000" stroke-width="2.2" /><rect height="22" width="88" x="824" y="120" stroke="#000000" stroke-width="2.2" fill="#ffffff" /><text x="868" y="135" font-family="DejaVu Sans Mono, monospace" font-size="14" font-weight="normal" font-style="italic" text-anchor="middle" fill="#000000">segmenty</text></g></g><path d="M912.0 131a10 10 0 0 0 10 -10v0a10 10 0 0 1 10 -10" fill="none" stroke="#000000" stroke-width="2.2" /></g></g><path d="M932.0 111h20" fill="none" stroke="#000000" stroke-width="2.2" /><path d="M117.0 111a10 10 0 0 1 10 10v30a10 10 0 0 0 10 10" fill="none" stroke="#000000" stroke-width="2.2" /><g>
<path d="M137.0 161h261.25" fill="none" stroke="#000000" stroke-width="2.2" /><path d="M670.75 161h261.25" fill="none" stroke="#000000" stroke-width="2.2" /><g class="terminal ">
<path d="M398.25 161h0.0" fill="none" stroke="#000000" stroke-width="2.2" /><path d="M469.25 161h0.0" fill="none" stroke="#000000" stroke-width="2.2" /><rect height="22" rx="10" ry="10" width="71" x="398.25" y="150" stroke="#000000" stroke-width="2.2" fill="#d7f4d7" /><text x="433.75" y="165" font-family="DejaVu Sans Mono, monospace" font-size="14" font-weight="bold" text-anchor="middle" fill="#000000">SYSTEM</text></g><path d="M469.25 161h10" fill="none" stroke="#000000" stroke-width="2.2" /><path d="M479.25 161h10" fill="none" stroke="#000000" stroke-width="2.2" /><g class="non-terminal ">
<path d="M489.25 161h0.0" fill="none" stroke="#000000" stroke-width="2.2" /><path d="M670.75 161h0.0" fill="none" stroke="#000000" stroke-width="2.2" /><rect height="22" width="181.5" x="489.25" y="150" stroke="#000000" stroke-width="2.2" fill="#ffffff" /><text x="580" y="165" font-family="DejaVu Sans Mono, monospace" font-size="14" font-weight="normal" font-style="italic" text-anchor="middle" fill="#000000">'polecenie_systemu'</text></g></g><path d="M932.0 161a10 10 0 0 0 10 -10v-30a10 10 0 0 1 10 -10" fill="none" stroke="#000000" stroke-width="2.2" /></g></g><path d="M962.0 111h10" fill="none" stroke="#000000" stroke-width="2.2" /><path d="M972.0 111h0.0" fill="none" stroke="#000000" stroke-width="2.2" /></g><path d="M972.0 111h10" fill="none" stroke="#000000" stroke-width="2.2" /><path d="M 982.0 111 h 20 m 0 -10 v 20" fill="none" stroke="#000000" stroke-width="2.2" /></g></svg>